<svg width="25" height="25" viewBox="0 0 25 25" fill="none" xmlns="http://www.w3.org/2000/svg">
<g id="Chevron Down">
<g id="Shape">
<path fill-rule="evenodd" clip-rule="evenodd" d="M5.46858 10.4914C5.65744 10.2899 5.97386 10.2797 6.17532 10.4686L12.5 16.398L18.8247 10.4686C19.0262 10.2797 19.3426 10.2899 19.5314 10.4914C19.7203 10.6928 19.7101 11.0092 19.5086 11.1981L12.842 17.4481C12.6497 17.6284 12.3504 17.6284 12.158 17.4481L5.49137 11.1981C5.28992 11.0092 5.27971 10.6928 5.46858 10.4914Z" fill="#F5F5F5"/>
<path d="M6.17532 10.4686L5.83335 10.8333L5.83335 10.8333L6.17532 10.4686ZM5.46858 10.4914L5.83335 10.8333L5.83335 10.8333L5.46858 10.4914ZM12.5 16.398L12.158 16.7627C12.3504 16.9431 12.6497 16.9431 12.842 16.7627L12.5 16.398ZM18.8247 10.4686L19.1667 10.8333L19.1667 10.8333L18.8247 10.4686ZM19.5314 10.4914L19.8962 10.1494L19.8962 10.1494L19.5314 10.4914ZM19.5086 11.1981L19.8506 11.5629L19.8506 11.5629L19.5086 11.1981ZM12.842 17.4481L12.5 17.0833L12.5 17.0833L12.842 17.4481ZM12.158 17.4481L12.5 17.0833L12.5 17.0833L12.158 17.4481ZM5.49137 11.1981L5.1494 11.5629L5.49137 11.1981ZM6.51729 10.1038C6.11437 9.72608 5.48154 9.74649 5.10381 10.1494L5.83335 10.8333L5.83335 10.8333L6.51729 10.1038ZM12.842 16.0332L6.51729 10.1038L5.83335 10.8333L12.158 16.7627L12.842 16.0332ZM18.4827 10.1038L12.158 16.0332L12.842 16.7627L19.1667 10.8333L18.4827 10.1038ZM19.8962 10.1494C19.5185 9.74649 18.8856 9.72608 18.4827 10.1038L19.1667 10.8333L19.1667 10.8333L19.8962 10.1494ZM19.8506 11.5629C20.2535 11.1852 20.2739 10.5523 19.8962 10.1494L19.1667 10.8333L19.1667 10.8333L19.8506 11.5629ZM13.184 17.8129L19.8506 11.5629L19.1667 10.8333L12.5 17.0833L13.184 17.8129ZM11.8161 17.8129C12.2007 18.1735 12.7993 18.1735 13.184 17.8129L12.5 17.0833H12.5L11.8161 17.8129ZM5.1494 11.5629L11.8161 17.8129L12.5 17.0833L5.83335 10.8333L5.1494 11.5629ZM5.10381 10.1494C4.72608 10.5523 4.74649 11.1852 5.1494 11.5629L5.83335 10.8333L5.83335 10.8333L5.10381 10.1494Z" fill="#F5F5F5"/>
</g>
</g>
</svg>
