<svg width="517" height="322" viewBox="0 0 517 322" fill="none" xmlns="http://www.w3.org/2000/svg">
<rect width="517" height="322" fill="#F5F5F5"/>
<path d="M129.4 175.395L127.936 196H73.7852V192.533C74.5664 192.468 75.6895 192.354 77.1543 192.191C78.6517 192.029 79.6934 191.817 80.2793 191.557C81.2559 191.133 81.9557 190.515 82.3789 189.701C82.8346 188.887 83.0625 187.846 83.0625 186.576V136.967C83.0625 135.86 82.8672 134.883 82.4766 134.037C82.1185 133.191 81.3861 132.507 80.2793 131.986C79.5306 131.596 78.4727 131.221 77.1055 130.863C75.7708 130.473 74.6641 130.245 73.7852 130.18V126.713H103.033V130.18C102.122 130.212 100.934 130.375 99.4688 130.668C98.0365 130.961 96.9948 131.221 96.3438 131.449C95.237 131.84 94.472 132.507 94.0488 133.451C93.6582 134.395 93.4629 135.404 93.4629 136.479V183.012C93.4629 185.16 93.5605 186.837 93.7559 188.041C93.9837 189.213 94.4883 190.124 95.2695 190.775C96.0182 191.361 97.125 191.752 98.5898 191.947C100.087 192.11 102.171 192.191 104.84 192.191C106.044 192.191 107.298 192.159 108.6 192.094C109.902 192.029 111.139 191.898 112.311 191.703C113.45 191.508 114.492 191.247 115.436 190.922C116.412 190.564 117.128 190.124 117.584 189.604C118.919 188.106 120.465 185.844 122.223 182.816C124.013 179.757 125.25 177.283 125.934 175.395H129.4ZM175.641 184.672C173.622 188.513 170.921 191.573 167.535 193.852C164.15 196.13 160.26 197.27 155.865 197.27C151.992 197.27 148.59 196.586 145.66 195.219C142.763 193.852 140.37 191.996 138.482 189.652C136.594 187.309 135.178 184.574 134.234 181.449C133.323 178.324 132.867 175.02 132.867 171.537C132.867 168.412 133.355 165.352 134.332 162.357C135.341 159.33 136.806 156.612 138.727 154.203C140.582 151.892 142.877 150.036 145.611 148.637C148.378 147.204 151.471 146.488 154.889 146.488C158.404 146.488 161.415 147.042 163.922 148.148C166.428 149.255 168.463 150.769 170.025 152.689C171.523 154.512 172.63 156.661 173.346 159.135C174.094 161.609 174.469 164.294 174.469 167.191V170.414H142.584C142.584 173.572 142.877 176.436 143.463 179.008C144.081 181.579 145.042 183.842 146.344 185.795C147.613 187.683 149.273 189.18 151.324 190.287C153.375 191.361 155.816 191.898 158.648 191.898C161.546 191.898 164.036 191.231 166.119 189.896C168.235 188.529 170.27 186.088 172.223 182.572L175.641 184.672ZM164.85 166.312C164.85 164.49 164.687 162.536 164.361 160.453C164.068 158.37 163.58 156.628 162.896 155.229C162.148 153.731 161.122 152.51 159.82 151.566C158.518 150.622 156.842 150.15 154.791 150.15C151.373 150.15 148.525 151.583 146.246 154.447C144 157.279 142.779 161.234 142.584 166.312H164.85ZM260.357 144.047H256.695C256.012 141.475 254.579 138.725 252.398 135.795C250.25 132.865 248.183 131.254 246.197 130.961C245.188 130.831 243.984 130.733 242.584 130.668C241.217 130.603 239.654 130.57 237.896 130.57H226.275V158.402H234.234C236.643 158.402 238.515 158.158 239.85 157.67C241.184 157.149 242.324 156.368 243.268 155.326C243.919 154.61 244.505 153.503 245.025 152.006C245.579 150.476 245.937 148.848 246.1 147.123H249.811V174.32H246.1C246.002 172.888 245.66 171.26 245.074 169.438C244.521 167.615 243.919 166.296 243.268 165.482C242.291 164.278 241.054 163.464 239.557 163.041C238.092 162.585 236.318 162.357 234.234 162.357H226.275V186.234C226.275 187.309 226.487 188.269 226.91 189.115C227.333 189.962 228.082 190.645 229.156 191.166C229.645 191.394 230.702 191.671 232.33 191.996C233.958 192.322 235.195 192.501 236.041 192.533V196H206.012V192.533C206.988 192.468 208.29 192.37 209.918 192.24C211.546 192.077 212.604 191.882 213.092 191.654C214.068 191.231 214.768 190.613 215.191 189.799C215.647 188.952 215.875 187.943 215.875 186.771V136.771C215.875 135.697 215.696 134.753 215.338 133.939C214.98 133.093 214.231 132.41 213.092 131.889C212.213 131.465 211.025 131.091 209.527 130.766C208.062 130.44 206.891 130.245 206.012 130.18V126.713H260.357V144.047ZM308.062 184.672C306.044 188.513 303.342 191.573 299.957 193.852C296.572 196.13 292.682 197.27 288.287 197.27C284.413 197.27 281.012 196.586 278.082 195.219C275.185 193.852 272.792 191.996 270.904 189.652C269.016 187.309 267.6 184.574 266.656 181.449C265.745 178.324 265.289 175.02 265.289 171.537C265.289 168.412 265.777 165.352 266.754 162.357C267.763 159.33 269.228 156.612 271.148 154.203C273.004 151.892 275.299 150.036 278.033 148.637C280.8 147.204 283.893 146.488 287.311 146.488C290.826 146.488 293.837 147.042 296.344 148.148C298.85 149.255 300.885 150.769 302.447 152.689C303.945 154.512 305.051 156.661 305.768 159.135C306.516 161.609 306.891 164.294 306.891 167.191V170.414H275.006C275.006 173.572 275.299 176.436 275.885 179.008C276.503 181.579 277.464 183.842 278.766 185.795C280.035 187.683 281.695 189.18 283.746 190.287C285.797 191.361 288.238 191.898 291.07 191.898C293.967 191.898 296.458 191.231 298.541 189.896C300.657 188.529 302.691 186.088 304.645 182.572L308.062 184.672ZM297.271 166.312C297.271 164.49 297.109 162.536 296.783 160.453C296.49 158.37 296.002 156.628 295.318 155.229C294.57 153.731 293.544 152.51 292.242 151.566C290.94 150.622 289.264 150.15 287.213 150.15C283.795 150.15 280.947 151.583 278.668 154.447C276.422 157.279 275.201 161.234 275.006 166.312H297.271ZM350.494 154.057C350.494 155.717 350.087 157.198 349.273 158.5C348.46 159.77 347.206 160.404 345.514 160.404C343.691 160.404 342.291 159.932 341.314 158.988C340.37 158.044 339.898 157.003 339.898 155.863C339.898 155.147 339.947 154.496 340.045 153.91C340.175 153.324 340.289 152.738 340.387 152.152C338.857 152.152 337.066 152.771 335.016 154.008C332.965 155.245 331.223 157.003 329.791 159.281V187.309C329.791 188.448 330.003 189.376 330.426 190.092C330.882 190.808 331.581 191.345 332.525 191.703C333.339 192.029 334.381 192.273 335.65 192.436C336.952 192.598 338.076 192.712 339.02 192.777V196H313.629V192.777C314.378 192.712 315.143 192.647 315.924 192.582C316.738 192.517 317.438 192.387 318.023 192.191C318.935 191.898 319.602 191.394 320.025 190.678C320.481 189.929 320.709 188.969 320.709 187.797V158.061C320.709 157.051 320.465 156.059 319.977 155.082C319.521 154.105 318.87 153.324 318.023 152.738C317.405 152.348 316.673 152.071 315.826 151.908C314.98 151.713 314.068 151.583 313.092 151.518V148.344L329.107 147.27L329.791 147.953V154.74H330.035C332.053 152.104 334.299 150.102 336.773 148.734C339.247 147.367 341.51 146.684 343.561 146.684C345.611 146.684 347.271 147.351 348.541 148.686C349.843 150.02 350.494 151.811 350.494 154.057ZM391.51 154.057C391.51 155.717 391.103 157.198 390.289 158.5C389.475 159.77 388.222 160.404 386.529 160.404C384.706 160.404 383.307 159.932 382.33 158.988C381.386 158.044 380.914 157.003 380.914 155.863C380.914 155.147 380.963 154.496 381.061 153.91C381.191 153.324 381.305 152.738 381.402 152.152C379.872 152.152 378.082 152.771 376.031 154.008C373.98 155.245 372.239 157.003 370.807 159.281V187.309C370.807 188.448 371.018 189.376 371.441 190.092C371.897 190.808 372.597 191.345 373.541 191.703C374.355 192.029 375.396 192.273 376.666 192.436C377.968 192.598 379.091 192.712 380.035 192.777V196H354.645V192.777C355.393 192.712 356.158 192.647 356.939 192.582C357.753 192.517 358.453 192.387 359.039 192.191C359.951 191.898 360.618 191.394 361.041 190.678C361.497 189.929 361.725 188.969 361.725 187.797V158.061C361.725 157.051 361.48 156.059 360.992 155.082C360.536 154.105 359.885 153.324 359.039 152.738C358.421 152.348 357.688 152.071 356.842 151.908C355.995 151.713 355.084 151.583 354.107 151.518V148.344L370.123 147.27L370.807 147.953V154.74H371.051C373.069 152.104 375.315 150.102 377.789 148.734C380.263 147.367 382.525 146.684 384.576 146.684C386.627 146.684 388.287 147.351 389.557 148.686C390.859 150.02 391.51 151.811 391.51 154.057ZM391.998 211.723C391.998 210.095 392.438 208.76 393.316 207.719C394.228 206.71 395.351 206.205 396.686 206.205C397.727 206.205 398.622 206.4 399.371 206.791C400.12 207.182 400.787 207.686 401.373 208.305C401.861 208.793 402.382 209.46 402.936 210.307C403.489 211.153 403.928 211.853 404.254 212.406C405.882 211.527 407.818 209.232 410.064 205.521C412.343 201.811 413.987 198.555 414.996 195.756C411.904 188.041 409.104 181.14 406.598 175.053C404.091 168.965 401.471 162.667 398.736 156.156C398.118 154.659 397.076 153.503 395.611 152.689C394.146 151.843 392.682 151.306 391.217 151.078V147.855H413.189V151.273C412.213 151.306 411.041 151.518 409.674 151.908C408.307 152.266 407.623 152.689 407.623 153.178C407.623 153.373 407.688 153.699 407.818 154.154C407.981 154.61 408.16 155.082 408.355 155.57C409.592 158.793 411.48 163.448 414.02 169.535C416.559 175.59 418.528 180.44 419.928 184.086C421.393 180.603 422.906 177.006 424.469 173.295C426.064 169.551 427.838 165.141 429.791 160.062C430.019 159.444 430.344 158.598 430.768 157.523C431.191 156.417 431.402 155.473 431.402 154.691C431.402 153.845 430.654 153.064 429.156 152.348C427.691 151.599 426.292 151.143 424.957 150.98V147.855H442.828V150.883C441.852 151.046 440.566 151.615 438.971 152.592C437.376 153.536 436.188 154.887 435.406 156.645C431.533 165.629 428.082 173.816 425.055 181.205C422.06 188.594 419.781 194.031 418.219 197.514C416.168 202.071 414.329 205.619 412.701 208.158C411.106 210.73 409.544 212.748 408.014 214.213C406.516 215.58 405.149 216.492 403.912 216.947C402.708 217.436 401.454 217.68 400.152 217.68C397.613 217.68 395.611 217.077 394.146 215.873C392.714 214.669 391.998 213.285 391.998 211.723Z" fill="#1F1F1F"/>
</svg>
